HIERARCHY
ROOT hip
{
OFFSET 0 58.08 0
CHANNELS 6 Xposition Yposition Zposition Zrotation Xrotation Yrotation
JOINT abdomen
{
OFFSET -0 7.24 -0.01
CHANNELS 3 Zrotation Xrotation Yrotation
JOINT chest
{
OFFSET -0 16.53 -0.76
CHANNELS 3 Zrotation Xrotation Yrotation
JOINT neck
{
OFFSET 0 36.46 -4.32
CHANNELS 3 Zrotation Xrotation Yrotation
JOINT head
{
OFFSET 0 10.45 2.78
CHANNELS 3 Zrotation Xrotation Yrotation
End Site
{
OFFSET 0 13.64 2.86
}
}
}
JOINT lCollar
{
OFFSET 3.05 30.96 -6.75
CHANNELS 3 Zrotation Xrotation Yrotation
JOINT lShldr
{
OFFSET 15.06 0.06 -0.44
CHANNELS 3 Zrotation Xrotation Yrotation
JOINT lForeArm
{
OFFSET 29.63 0.77 0.57
CHANNELS 3 Zrotation Xrotation Yrotation
JOINT lHand
{
OFFSET 27.17 0.78 2.11
CHANNELS 3 Zrotation Xrotation Yrotation
End Site
{
OFFSET 8.97 -0.32 0.14
}
}
}
}
}
JOINT rCollar
{
OFFSET -3.05 30.96 -6.75
CHANNELS 3 Zrotation Xrotation Yrotation
JOINT rShldr
{
OFFSET -15.06 0.06 -0.44
CHANNELS 3 Zrotation Xrotation Yrotation
JOINT rForeArm
{
OFFSET -29.63 0.77 0.57
CHANNELS 3 Zrotation Xrotation Yrotation
JOINT rHand
{
OFFSET -27.17 0.78 2.11
CHANNELS 3 Zrotation Xrotation Yrotation
End Site
{
OFFSET -8.97 -0.32 0.14
}
}
}
}
}
}
}
JOINT lThigh
{
OFFSET 8.73 0 0
CHANNELS 3 Zrotation Xrotation Yrotation
JOINT lShin
{
OFFSET -0.21 -43.63 -2.09
CHANNELS 3 Zrotation Xrotation Yrotation
JOINT lFoot
{
OFFSET -0.76 -43.30 -5.75
CHANNELS 3 Zrotation Xrotation Yrotation
JOINT lToe
{
OFFSET 2.46 -8.89 14.00
CHANNELS 3 Zrotation Xrotation Yrotation
End Site
{
OFFSET -0.03 -0.01 4.57
}
}
}
}
}
JOINT rThigh
{
OFFSET -8.73 0 0
CHANNELS 3 Zrotation Xrotation Yrotation
JOINT rShin
{
OFFSET 0.21 -43.63 -2.09
CHANNELS 3 Zrotation Xrotation Yrotation
JOINT rFoot
{
OFFSET 0.76 -43.30 -5.75
CHANNELS 3 Zrotation Xrotation Yrotation
JOINT rToe
{
OFFSET -2.37 -8.88 14.03
CHANNELS 3 Zrotation Xrotation Yrotation
End Site
{
OFFSET 0.03 0 4.57
}
}
}
}
}
}
MOTION
Frames: 1
Frame Time: 0.03
0 58.08 0 12.60 25.97 -26.43 -0.69 3.41 2.76 -3.25 9.53 8.58 0 -9.83 0 6.49 -16.61 3.01 -9.37 -0.12 -1.74 -7.33 32.42 -42.90 3.17 -0.18 -64.57 34.35 24.45 -32.31 9.37 -0.12 1.74 43.47 22.81 27.68 -2.42 0.20 48.18 0.10 9.74 1.83 122.21 -60.55 106.52 -125.54 79.38 116.68 -15.59 -18.56 9.76 0.03 -0.10 9.99 -111.84 -48.58 -113.46 143.79 75.49 -134.52 2.36 -18.42 -16.60 0 0 -9.99 
